<svg width="12" height="14" viewBox="0 0 12 14" fill="none" xmlns="http://www.w3.org/2000/svg">
<path d="M10.8272 13.9677C11.4935 13.9677 12 13.4452 12 12.8009V1.1668C12 0.522508 11.4596 0 10.7932 0C10.1268 0 9.62037 0.522508 9.62037 1.13398V12.7983C9.62037 13.4755 10.1936 13.9677 10.8272 13.9677ZM1.98026 13.7307L9.22099 7.92951C9.50855 7.69483 9.65204 7.36324 9.65204 7.0318C9.65204 6.70021 9.5084 6.36891 9.22099 6.13409L1.98026 0.332903C1.20226 -0.355509 0 0.168821 0 1.1668V12.8312C0 13.8291 1.20226 14.3542 1.98026 13.7307Z" fill="#f8f8f8" shape-rendering="geometricPrecision"/>
</svg>
