<svg width="35" height="35" viewBox="0 0 35 35" fill="none" xmlns="http://www.w3.org/2000/svg">
<path d="M35 17.5C35 27.166 27.166 35 17.5 35C7.83398 35 0 27.166 0 17.5C0 7.83398 7.83398 0 17.5 0C27.166 0 35 7.83398 35 17.5ZM12.0312 11.4844V23.5156C12.0312 24.1104 12.3525 24.6572 12.8721 24.9443C13.3848 25.2383 14.0205 25.2246 14.5264 24.917L24.3701 18.9014C24.8555 18.6006 25.1562 18.0742 25.1562 17.5C25.1562 16.9258 24.8555 16.3994 24.3701 16.0986L14.5264 10.083C14.0205 9.71387 13.3848 9.76172 12.8721 10.0557C12.3525 10.3428 12.0312 10.8896 12.0312 11.4844Z" fill="#f8f8f8" shape-rendering="geometricPrecision"/>
</svg>
