<svg width="12" height="14" viewBox="0 0 12 14" fill="none" xmlns="http://www.w3.org/2000/svg">
<path d="M1.16643 0.00188809C0.503704 0.00188809 0 0.524402 0 1.1687V12.8332C0 13.4775 0.537459 14 1.20019 14C1.86292 13.9697 2.40037 13.4775 2.40037 12.8029V1.1687C2.40037 0.524402 1.86292 0.00188809 1.16643 0.00188809ZM10.0328 0.270985L2.83169 6.07223C2.54365 6.33805 2.40037 6.66986 2.40037 7.00167C2.40037 7.33327 2.54365 7.66457 2.82944 7.89939L10.0306 13.7006C10.8043 14.3249 12 13.8009 12 12.8029V1.13844C11.9681 0.170711 10.8054 -0.353625 10.0328 0.270985Z" fill="#f8f8f8" shape-rendering="geometricPrecision"/>
</svg>
