<svg width="98" height="99" viewBox="0 0 98 99" fill="none" xmlns="http://www.w3.org/2000/svg">
<path d="M49 0.578125C21.9512 0.578125 0 22.4943 0 49.5C0 76.5057 21.9512 98.4219 49 98.4219C76.0488 98.4219 98 76.5057 98 49.5C98 22.4943 76.0488 0.578125 49 0.578125ZM68.8964 72.5604C68.0665 72.5604 67.5528 72.3039 66.7823 71.8502C54.4532 64.433 40.1089 64.1174 25.9423 67.0172C25.1718 67.2145 24.1641 67.5301 23.5911 67.5301C21.6746 67.5301 20.4694 66.0111 20.4694 64.4133C20.4694 62.3814 21.6746 61.4148 23.1565 61.0992C39.3383 57.5287 55.8758 57.8443 69.9831 66.2676C71.1883 67.0369 71.8996 67.7273 71.8996 69.5225C71.8996 71.3176 70.4968 72.5604 68.8964 72.5604V72.5604ZM74.2113 59.6197C73.1839 59.6197 72.4923 59.166 71.781 58.7912C59.4323 51.4924 41.0177 48.5531 24.6383 52.9916C23.6899 53.248 23.1762 53.5045 22.2871 53.5045C20.173 53.5045 18.454 51.7883 18.454 49.6775C18.454 47.5668 19.4815 46.1662 21.5165 45.5941C27.0093 44.0555 32.6206 42.9113 40.8399 42.9113C53.6629 42.9113 66.0512 46.0873 75.8117 51.8869C77.4121 52.8338 78.0444 54.0568 78.0444 55.773C78.0246 57.9035 76.3649 59.6197 74.2113 59.6197V59.6197ZM80.3363 44.5881C79.3089 44.5881 78.6766 44.3316 77.7875 43.8187C63.7198 35.435 38.5677 33.4229 22.2871 37.96C21.5758 38.1572 20.6867 38.4729 19.7383 38.4729C17.1302 38.4729 15.1347 36.441 15.1347 33.8174C15.1347 31.1346 16.7944 29.6156 18.5726 29.1027C25.5274 27.0709 33.3121 26.1043 41.7883 26.1043C56.2117 26.1043 71.3266 29.1027 82.3714 35.5336C83.9125 36.4213 84.9202 37.6443 84.9202 39.9918C84.9202 42.6746 82.7468 44.5881 80.3363 44.5881V44.5881Z" fill="#F8F8F8"/>
</svg>
